<?xml version="1.0" encoding="UTF-8" standalone="no"?>
<svg width="52px" height="14px" viewBox="0 0 52 14" version="1.1" xmlns="http://www.w3.org/2000/svg" xmlns:xlink="http://www.w3.org/1999/xlink">
    <!-- Generator: Sketch 3.6.1 (26313) - http://www.bohemiancoding.com/sketch -->
    <title>github</title>
    <desc>Created with Sketch.</desc>
    <defs></defs>
    <g id="ㅎㅇ" stroke="none" stroke-width="1" fill="none" fill-rule="evenodd">
        <g id="github" fill="#FFFFFF">
            <g id="Landing">
                <g id="Desktop-HD-Copy-9">
                    <g id="Connect">
                        <path d="M10.060189,5.9921263 L5.670621,5.9921263 C5.557684,5.9921263 5.465861,6.0831443 5.465861,6.1959381 L5.465861,8.3227655 C5.465861,8.4355593 5.557684,8.5261263 5.670621,8.5261263 L7.38349,8.5261263 L7.38349,11.1699253 C7.38349,11.1699253 6.998632,11.2972423 5.936591,11.2972423 C4.682293,11.2972423 2.930601,10.8418093 2.930601,7.0251675 C2.930601,3.206884 4.754278,2.7044536 6.467166,2.7044536 C7.949903,2.7044536 8.587826,2.9625155 8.994708,3.0876675 C9.122296,3.1274124 9.238673,3.0005103 9.238673,2.8873196 L9.729169,0.8322423 C9.729169,0.7797062 9.710222,0.7164716 9.651597,0.67375 C9.48606,0.5584124 8.479167,0 5.936554,0 C3.005571,0 0,1.2355902 0,7.1760284 C0,13.1156005 3.4409,14 6.340851,14 C8.741242,14 10.199826,12.9840258 10.199826,12.9840258 C10.259307,12.9515335 10.26535,12.8686521 10.26535,12.8310541 L10.26535,6.1959381 C10.264494,6.0839923 10.172252,5.9921263 10.060189,5.9921263 L10.060189,5.9921263 L10.060189,5.9921263 Z M32.258947,0.5075722 L29.789175,0.5075722 C29.675383,0.5075722 29.584032,0.5985722 29.584032,0.711366 L29.584032,5.4452603 L25.732374,5.4452603 L25.732374,0.711366 C25.732374,0.5985722 25.640132,0.5075722 25.528924,0.5075722 L23.056549,0.5075722 C22.945323,0.5075722 22.85481,0.5985722 22.85481,0.711366 L22.85481,13.5291778 C22.85481,13.6428196 22.946197,13.7334046 23.056549,13.7334046 L25.528924,13.7334046 C25.641824,13.7334046 25.732374,13.6419716 25.732374,13.5291778 L25.732374,8.0476005 L29.584032,8.0476005 L29.575387,13.5300258 C29.575387,13.6436856 29.666774,13.7333866 29.777126,13.7333866 L32.250356,13.7333866 C32.364148,13.7333866 32.452951,13.6419536 32.452951,13.5300258 L32.46156,0.7113479 C32.463271,0.5985722 32.371028,0.5075722 32.258947,0.5075722 L32.258947,0.5075722 L32.258947,0.5075722 Z M13.012722,0.7980902 C12.132581,0.7980902 11.418796,1.512018 11.418796,2.3929897 C11.418796,3.2743943 12.132581,3.9883402 13.012722,3.9883402 C13.892864,3.9883402 14.605793,3.2744124 14.605793,2.3929897 C14.605812,1.5120361 13.892882,0.7980902 13.012722,0.7980902 L13.012722,0.7980902 L13.012722,0.7980902 Z M14.430792,4.9094897 C14.430792,4.7975438 14.339423,4.7048299 14.228197,4.7048299 L11.763612,4.7048299 C11.648073,4.7048299 11.549824,4.8201856 11.549824,4.9334124 L11.549824,13.4103943 C11.549824,13.6581907 11.705842,13.7333866 11.908437,13.7333866 L14.128202,13.7333866 C14.370474,13.7333866 14.434232,13.6154691 14.434232,13.4052526 C14.432521,12.9506675 14.432521,11.1716031 14.432521,10.8264021 C14.430792,10.4982861 14.430792,4.9094897 14.430792,4.9094897 L14.430792,4.9094897 L14.430792,4.9094897 Z M41.8252,4.7240619 L39.373519,4.7240619 C39.261438,4.7240619 39.17178,4.8159278 39.17178,4.9287216 L39.17178,11.2126649 C39.17178,11.2126649 38.548508,11.66725 37.662306,11.66725 C36.778706,11.66725 36.542495,11.2699098 36.542495,10.409433 L36.542495,4.9278737 C36.542495,4.8150799 36.450253,4.7231959 36.339901,4.7231959 L33.852874,4.7231959 C33.739082,4.7231959 33.649424,4.8150799 33.649424,4.9278737 L33.649424,10.8238763 C33.649424,13.3728144 35.083037,13.9974381 37.052812,13.9974381 C38.670036,13.9974381 39.976042,13.1113428 39.976042,13.1113428 C39.976042,13.1113428 40.037252,13.5761933 40.068284,13.6317242 C40.094166,13.6872552 40.167425,13.7428222 40.2476,13.7428222 L41.823434,13.7428222 C41.935516,13.7428222 42.026884,13.6513711 42.026884,13.5385773 L42.033782,4.9278918 C42.028631,4.8159098 41.937245,4.7240619 41.8252,4.7240619 L41.8252,4.7240619 L41.8252,4.7240619 Z M48.540589,4.4352397 C47.14751,4.4352397 46.200098,5.0513119 46.200098,5.0513119 L46.200098,0.711366 C46.200098,0.5985722 46.107856,0.5075722 45.997504,0.5075722 L43.517375,0.5075722 C43.406186,0.5075722 43.314781,0.5985722 43.314781,0.711366 L43.307882,13.5300438 C43.307882,13.6437036 43.400125,13.7334046 43.512188,13.7334046 L45.23889,13.7334046 C45.315607,13.7334046 45.373376,13.6940928 45.41735,13.6257345 C45.460468,13.5565103 45.521641,13.034433 45.521641,13.034433 C45.521641,13.034433 46.532829,13.9863428 48.452624,13.9863428 C50.706025,13.9863428 51.997397,12.8532809 51.997397,8.9004098 C51.997434,4.9526443 49.933669,4.4352397 48.540589,4.4352397 L48.540589,4.4352397 L48.540589,4.4352397 Z M47.573375,11.6586985 C46.723374,11.6330619 46.147516,11.2502448 46.147516,11.2502448 L46.147516,7.1897036 C46.147516,7.1897036 46.717331,6.8432036 47.415609,6.7820979 C48.299209,6.7043402 49.152668,6.9683918 49.152668,9.0576392 C49.148318,11.2587964 48.76386,11.6937165 47.573375,11.6586985 L47.573375,11.6586985 L47.573375,11.6586985 Z M21.570354,11.612549 C21.461712,11.612549 21.184148,11.6552706 20.89965,11.6552706 C19.991061,11.6552706 19.680717,11.2357036 19.680717,10.6931134 L19.680717,7.0875722 L21.535863,7.0875722 C21.649655,7.0875722 21.739313,6.9965722 21.739313,6.8829304 L21.739313,4.9077758 C21.741023,4.794134 21.649655,4.703116 21.535863,4.703116 L19.680717,4.703116 L19.678114,2.2759381 C19.678114,2.1840722 19.62899,2.1383737 19.522096,2.1383737 L16.99712,2.1383737 C16.899709,2.1383737 16.845397,2.1815103 16.845397,2.2750902 L16.845397,4.7834536 C16.845397,4.7834536 15.579051,5.086366 15.493688,5.1115876 C15.409218,5.1355103 15.347153,5.214134 15.347153,5.3068299 L15.347153,6.8837784 C15.347153,6.9965722 15.439395,7.0884381 15.550603,7.0884381 L16.845397,7.0884381 L16.845397,10.8811031 C16.845397,13.6975026 18.839362,13.9743634 20.184154,13.9743634 C20.797943,13.9743634 21.532405,13.7761263 21.655661,13.7334046 C21.729812,13.707768 21.772056,13.6317062 21.772056,13.5505387 L21.772911,11.8167577 C21.772911,11.703134 21.677247,11.6108351 21.570354,11.612549 L21.570354,11.612549 L21.570354,11.612549 Z" id="github"></path>
                    </g>
                </g>
            </g>
        </g>
    </g>
</svg>