<?xml version="1.0" encoding="UTF-8" standalone="no"?>
<svg width="180px" height="54px" viewBox="0 0 180 54" version="1.1" xmlns="http://www.w3.org/2000/svg" xmlns:xlink="http://www.w3.org/1999/xlink">
    <!-- Generator: Sketch 3.6.1 (26313) - http://www.bohemiancoding.com/sketch -->
    <title>Download_on_the_App_Store_Badge_US-UK_135x40</title>
    <desc>Created with Sketch.</desc>
    <defs></defs>
    <g id="ㅎㅇ" stroke="none" stroke-width="1" fill="none" fill-rule="evenodd">
        <g id="Download_on_the_App_Store_Badge_US-UK_135x40">
            <g id="US_UK_Download_on_the">
                <g id="Group">
                    <path d="M173.596,53.3333333 L6.30533333,53.3333333 C2.82933333,53.3333333 0,50.496 0,47.0226667 L0,6.30133333 C0,2.82666667 2.82933333,0 6.30533333,0 L173.596,0 C177.070667,0 180,2.82666667 180,6.30133333 L180,47.0226667 C180,50.496 177.070667,53.3333333 173.596,53.3333333 L173.596,53.3333333 L173.596,53.3333333 Z" id="Shape" fill="#A6A6A6"></path>
                    <path d="M178.709333,47.024 C178.709333,49.8453333 176.424,52.1306667 173.597333,52.1306667 L6.30533333,52.1306667 C3.48,52.1306667 1.18666667,49.8453333 1.18666667,47.024 L1.18666667,6.3 C1.18666667,3.48 3.48,1.18666667 6.30533333,1.18666667 L173.596,1.18666667 C176.424,1.18666667 178.708,3.48 178.708,6.3 L178.709333,47.024 L178.709333,47.024 L178.709333,47.024 Z" id="Shape" fill="#000000"></path>
                    <g transform="translate(16.000000, 8.000000)" id="Shape" fill="#FFFFFF">
                        <path d="M24.1706667,18.3786667 C24.132,14.0813333 27.6893333,11.9906667 27.852,11.8933333 C25.8373333,8.956 22.7146667,8.55466667 21.6173333,8.52266667 C18.9946667,8.24666667 16.4506667,10.092 15.1146667,10.092 C13.752,10.092 11.6946667,8.54933333 9.47733333,8.59466667 C6.624,8.63866667 3.95466667,10.2906667 2.49066667,12.856 C-0.530666667,18.0866667 1.72266667,25.7733333 4.61733333,30.0013333 C6.06533333,32.072 7.75733333,34.384 9.972,34.3026667 C12.1386667,34.2133333 12.948,32.9213333 15.5626667,32.9213333 C18.1533333,32.9213333 18.9133333,34.3026667 21.172,34.2506667 C23.4973333,34.2133333 24.9613333,32.1706667 26.3586667,30.0813333 C28.032,27.708 28.704,25.3706667 28.7306667,25.2506667 C28.676,25.232 24.2146667,23.5293333 24.1706667,18.3786667 L24.1706667,18.3786667 Z"></path>
                        <path d="M19.904,5.74133333 C21.0693333,4.284 21.8666667,2.30133333 21.6453333,0.289333333 C19.9586667,0.364 17.8493333,1.456 16.6346667,2.88133333 C15.56,4.13733333 14.6,6.196 14.848,8.132 C16.7426667,8.27333333 18.688,7.176 19.904,5.74133333 L19.904,5.74133333 Z"></path>
                    </g>
                    <g transform="translate(56.000000, 24.000000)" id="Shape" fill="#FFFFFF">
                        <path d="M15.5266667,18.0053333 L12.4986667,18.0053333 L10.84,12.7933333 L5.07466667,12.7933333 L3.49466667,18.0053333 L0.546666667,18.0053333 L6.25866667,0.261333333 L9.78666667,0.261333333 L15.5266667,18.0053333 L15.5266667,18.0053333 Z M10.34,10.6066667 L8.84,5.97333333 C8.68133333,5.5 8.384,4.38533333 7.94533333,2.63066667 L7.892,2.63066667 C7.71733333,3.38533333 7.436,4.5 7.04933333,5.97333333 L5.576,10.6066667 L10.34,10.6066667 L10.34,10.6066667 Z"></path>
                        <path d="M30.216,11.4506667 C30.216,13.6266667 29.628,15.3466667 28.452,16.6093333 C27.3986667,17.7333333 26.0906667,18.2946667 24.5293333,18.2946667 C22.844,18.2946667 21.6333333,17.6893333 20.896,16.4786667 L20.8426667,16.4786667 L20.8426667,23.2186667 L18,23.2186667 L18,9.42266667 C18,8.05466667 17.964,6.65066667 17.8946667,5.21066667 L20.3946667,5.21066667 L20.5533333,7.23866667 L20.6066667,7.23866667 C21.5546667,5.71066667 22.9933333,4.948 24.924,4.948 C26.4333333,4.948 27.6933333,5.544 28.7013333,6.73733333 C29.712,7.932 30.216,9.50266667 30.216,11.4506667 L30.216,11.4506667 Z M27.32,11.5546667 C27.32,10.3093333 27.04,9.28266667 26.4773333,8.47466667 C25.8626667,7.632 25.0373333,7.21066667 24.0026667,7.21066667 C23.3013333,7.21066667 22.664,7.44533333 22.0946667,7.908 C21.524,8.37466667 21.1506667,8.984 20.976,9.73866667 C20.888,10.0906667 20.844,10.3786667 20.844,10.6053333 L20.844,12.7386667 C20.844,13.6693333 21.1293333,14.4546667 21.7,15.096 C22.2706667,15.7373333 23.012,16.0573333 23.924,16.0573333 C24.9946667,16.0573333 25.828,15.644 26.424,14.82 C27.0213333,13.9946667 27.32,12.9066667 27.32,11.5546667 L27.32,11.5546667 Z"></path>
                        <path d="M44.932,11.4506667 C44.932,13.6266667 44.344,15.3466667 43.1666667,16.6093333 C42.1146667,17.7333333 40.8066667,18.2946667 39.2453333,18.2946667 C37.56,18.2946667 36.3493333,17.6893333 35.6133333,16.4786667 L35.56,16.4786667 L35.56,23.2186667 L32.7173333,23.2186667 L32.7173333,9.42266667 C32.7173333,8.05466667 32.6813333,6.65066667 32.612,5.21066667 L35.112,5.21066667 L35.2706667,7.23866667 L35.324,7.23866667 C36.2706667,5.71066667 37.7093333,4.948 39.6413333,4.948 C41.1493333,4.948 42.4093333,5.544 43.42,6.73733333 C44.4266667,7.932 44.932,9.50266667 44.932,11.4506667 L44.932,11.4506667 Z M42.036,11.5546667 C42.036,10.3093333 41.7546667,9.28266667 41.192,8.47466667 C40.5773333,7.632 39.7546667,7.21066667 38.7186667,7.21066667 C38.016,7.21066667 37.38,7.44533333 36.8093333,7.908 C36.2386667,8.37466667 35.8666667,8.984 35.692,9.73866667 C35.6053333,10.0906667 35.56,10.3786667 35.56,10.6053333 L35.56,12.7386667 C35.56,13.6693333 35.8453333,14.4546667 36.4133333,15.096 C36.984,15.736 37.7253333,16.0573333 38.64,16.0573333 C39.7106667,16.0573333 40.544,15.644 41.14,14.82 C41.7373333,13.9946667 42.036,12.9066667 42.036,11.5546667 L42.036,11.5546667 Z"></path>
                        <path d="M61.3853333,13.0293333 C61.3853333,14.5386667 60.8613333,15.7666667 59.8093333,16.7146667 C58.6533333,17.7506667 57.044,18.268 54.976,18.268 C53.0666667,18.268 51.536,17.9 50.3773333,17.1626667 L51.036,14.7933333 C52.284,15.548 53.6533333,15.9266667 55.1453333,15.9266667 C56.216,15.9266667 57.0493333,15.684 57.648,15.2013333 C58.244,14.7186667 58.5413333,14.0706667 58.5413333,13.2626667 C58.5413333,12.5426667 58.296,11.936 57.804,11.444 C57.3146667,10.952 56.4973333,10.4946667 55.356,10.072 C52.2493333,8.91333333 50.6973333,7.216 50.6973333,4.984 C50.6973333,3.52533333 51.2413333,2.32933333 52.3306667,1.39866667 C53.416,0.466666667 54.864,0.00133333333 56.6746667,0.00133333333 C58.2893333,0.00133333333 59.6306667,0.282666667 60.7013333,0.844 L59.9906667,3.16133333 C58.9906667,2.61733333 57.86,2.34533333 56.5946667,2.34533333 C55.5946667,2.34533333 54.8133333,2.592 54.2533333,3.08266667 C53.78,3.52133333 53.5426667,4.056 53.5426667,4.68933333 C53.5426667,5.39066667 53.8133333,5.97066667 54.3573333,6.42666667 C54.8306667,6.848 55.6906667,7.304 56.9386667,7.796 C58.4653333,8.41066667 59.5866667,9.12933333 60.308,9.95333333 C61.0266667,10.7746667 61.3853333,11.8026667 61.3853333,13.0293333 L61.3853333,13.0293333 Z"></path>
                        <path d="M70.784,7.344 L67.6506667,7.344 L67.6506667,13.556 C67.6506667,15.136 68.2026667,15.9253333 69.3093333,15.9253333 C69.8173333,15.9253333 70.2386667,15.8813333 70.572,15.7933333 L70.6506667,17.952 C70.0906667,18.1613333 69.3533333,18.2666667 68.44,18.2666667 C67.3173333,18.2666667 66.44,17.924 65.8066667,17.24 C65.176,16.5546667 64.8586667,15.4053333 64.8586667,13.7906667 L64.8586667,7.34133333 L62.992,7.34133333 L62.992,5.208 L64.8586667,5.208 L64.8586667,2.86533333 L67.6506667,2.02266667 L67.6506667,5.208 L70.784,5.208 L70.784,7.344 L70.784,7.344 Z"></path>
                        <path d="M84.9213333,11.5026667 C84.9213333,13.4693333 84.3586667,15.084 83.236,16.3466667 C82.0586667,17.6466667 80.496,18.2946667 78.548,18.2946667 C76.6706667,18.2946667 75.176,17.672 74.0613333,16.4266667 C72.9466667,15.1813333 72.3893333,13.6093333 72.3893333,11.7146667 C72.3893333,9.732 72.9626667,8.108 74.1133333,6.84533333 C75.2613333,5.58133333 76.8106667,4.94933333 78.7586667,4.94933333 C80.636,4.94933333 82.1466667,5.572 83.2866667,6.81866667 C84.3773333,8.028 84.9213333,9.58933333 84.9213333,11.5026667 L84.9213333,11.5026667 Z M81.972,11.5946667 C81.972,10.4146667 81.72,9.40266667 81.2093333,8.55866667 C80.6133333,7.53733333 79.7613333,7.028 78.6573333,7.028 C77.5146667,7.028 76.6466667,7.53866667 76.0506667,8.55866667 C75.54,9.404 75.288,10.432 75.288,11.648 C75.288,12.828 75.54,13.84 76.0506667,14.6826667 C76.6653333,15.704 77.524,16.2133333 78.632,16.2133333 C79.7173333,16.2133333 80.5693333,15.6933333 81.184,14.656 C81.708,13.796 81.972,12.7733333 81.972,11.5946667 L81.972,11.5946667 Z"></path>
                        <path d="M94.1613333,7.71066667 C93.88,7.65866667 93.58,7.632 93.2653333,7.632 C92.2653333,7.632 91.492,8.00933333 90.948,8.76533333 C90.4746667,9.432 90.2373333,10.2746667 90.2373333,11.292 L90.2373333,18.0053333 L87.396,18.0053333 L87.4226667,9.24 C87.4226667,7.76533333 87.3866667,6.42266667 87.316,5.212 L89.792,5.212 L89.896,7.66 L89.9746667,7.66 C90.2746667,6.81866667 90.748,6.14133333 91.396,5.63333333 C92.0293333,5.176 92.7133333,4.948 93.4506667,4.948 C93.7133333,4.948 93.9506667,4.96666667 94.1613333,5 L94.1613333,7.71066667 L94.1613333,7.71066667 Z"></path>
                        <path d="M106.874667,11.0026667 C106.874667,11.512 106.841333,11.9413333 106.770667,12.292 L98.2426667,12.292 C98.276,13.556 98.688,14.5226667 99.48,15.1893333 C100.198667,15.7853333 101.128,16.084 102.269333,16.084 C103.532,16.084 104.684,15.8826667 105.72,15.4786667 L106.165333,17.452 C104.954667,17.98 103.525333,18.2426667 101.876,18.2426667 C99.892,18.2426667 98.3346667,17.6586667 97.2013333,16.492 C96.0706667,15.3253333 95.504,13.7586667 95.504,11.7933333 C95.504,9.864 96.0306667,8.25733333 97.0853333,6.976 C98.1893333,5.608 99.6813333,4.924 101.558667,4.924 C103.402667,4.924 104.798667,5.608 105.746667,6.976 C106.497333,8.06266667 106.874667,9.40666667 106.874667,11.0026667 L106.874667,11.0026667 Z M104.164,10.2653333 C104.182667,9.42266667 103.997333,8.69466667 103.612,8.08 C103.12,7.28933333 102.364,6.89466667 101.346667,6.89466667 C100.417333,6.89466667 99.6613333,7.28 99.084,8.05333333 C98.6106667,8.668 98.3293333,9.40533333 98.2426667,10.264 L104.164,10.264 L104.164,10.2653333 Z"></path>
                    </g>
                    <g transform="translate(57.333333, 8.000000)" id="Shape" fill="#FFFFFF">
                        <path d="M8.06666667,5.34533333 C8.06666667,6.91466667 7.596,8.096 6.656,8.88933333 C5.78533333,9.62133333 4.548,9.988 2.94533333,9.988 C2.15066667,9.988 1.47066667,9.95333333 0.901333333,9.884 L0.901333333,1.30933333 C1.644,1.18933333 2.444,1.128 3.308,1.128 C4.83466667,1.128 5.98533333,1.46 6.76133333,2.124 C7.63066667,2.87466667 8.06666667,3.948 8.06666667,5.34533333 L8.06666667,5.34533333 Z M6.59333333,5.384 C6.59333333,4.36666667 6.324,3.58666667 5.78533333,3.04266667 C5.24666667,2.5 4.46,2.228 3.424,2.228 C2.984,2.228 2.60933333,2.25733333 2.29866667,2.31866667 L2.29866667,8.83733333 C2.47066667,8.864 2.78533333,8.876 3.24266667,8.876 C4.312,8.876 5.13733333,8.57866667 5.71866667,7.984 C6.3,7.38933333 6.59333333,6.52266667 6.59333333,5.384 L6.59333333,5.384 Z"></path>
                        <path d="M15.8786667,6.716 C15.8786667,7.68266667 15.6026667,8.47466667 15.0506667,9.096 C14.472,9.73466667 13.7053333,10.0533333 12.748,10.0533333 C11.8253333,10.0533333 11.0906667,9.748 10.5426667,9.13466667 C9.996,8.52266667 9.72266667,7.75066667 9.72266667,6.82 C9.72266667,5.84666667 10.004,5.048 10.5693333,4.428 C11.1346667,3.808 11.8946667,3.49733333 12.852,3.49733333 C13.7746667,3.49733333 14.516,3.80266667 15.0773333,4.41466667 C15.6106667,5.00933333 15.8786667,5.77733333 15.8786667,6.716 L15.8786667,6.716 Z M14.4293333,6.76133333 C14.4293333,6.18133333 14.304,5.684 14.0546667,5.26933333 C13.7613333,4.768 13.344,4.51733333 12.8013333,4.51733333 C12.24,4.51733333 11.8133333,4.768 11.52,5.26933333 C11.2693333,5.684 11.1453333,6.18933333 11.1453333,6.78666667 C11.1453333,7.36666667 11.2706667,7.864 11.52,8.27866667 C11.8226667,8.78 12.244,9.03066667 12.788,9.03066667 C13.3213333,9.03066667 13.74,8.776 14.0413333,8.26533333 C14.3,7.84266667 14.4293333,7.34133333 14.4293333,6.76133333 L14.4293333,6.76133333 Z"></path>
                        <path d="M26.3533333,3.62533333 L24.3866667,9.91066667 L23.1066667,9.91066667 L22.292,7.18133333 C22.0853333,6.5 21.9173333,5.82266667 21.7866667,5.15066667 L21.7613333,5.15066667 C21.64,5.84133333 21.472,6.51733333 21.256,7.18133333 L20.3906667,9.91066667 L19.096,9.91066667 L17.2466667,3.62533333 L18.6826667,3.62533333 L19.3933333,6.61333333 C19.5653333,7.32 19.7066667,7.99333333 19.82,8.63066667 L19.8453333,8.63066667 C19.9493333,8.10533333 20.1213333,7.436 20.364,6.62666667 L21.256,3.62666667 L22.3946667,3.62666667 L23.2493333,6.56266667 C23.456,7.27866667 23.624,7.968 23.7533333,8.632 L23.792,8.632 C23.8866667,7.98533333 24.0293333,7.296 24.2186667,6.56266667 L24.9813333,3.62666667 L26.3533333,3.62666667 L26.3533333,3.62533333 Z"></path>
                        <path d="M33.5973333,9.91066667 L32.2,9.91066667 L32.2,6.31066667 C32.2,5.20133333 31.7786667,4.64666667 30.9333333,4.64666667 C30.5186667,4.64666667 30.184,4.79866667 29.924,5.104 C29.6666667,5.40933333 29.536,5.76933333 29.536,6.18133333 L29.536,9.90933333 L28.1386667,9.90933333 L28.1386667,5.42133333 C28.1386667,4.86933333 28.1213333,4.27066667 28.088,3.62266667 L29.316,3.62266667 L29.3813333,4.60533333 L29.42,4.60533333 C29.5826667,4.3 29.8253333,4.048 30.144,3.84666667 C30.5226667,3.612 30.9466667,3.49333333 31.4106667,3.49333333 C31.9973333,3.49333333 32.4853333,3.68266667 32.8733333,4.06266667 C33.356,4.528 33.5973333,5.22266667 33.5973333,6.14533333 L33.5973333,9.91066667 L33.5973333,9.91066667 Z"></path>
                        <path d="M37.4506667,9.91066667 L36.0546667,9.91066667 L36.0546667,0.741333333 L37.4506667,0.741333333 L37.4506667,9.91066667 L37.4506667,9.91066667 Z"></path>
                        <path d="M45.6773333,6.716 C45.6773333,7.68266667 45.4013333,8.47466667 44.8493333,9.096 C44.2706667,9.73466667 43.5026667,10.0533333 42.5466667,10.0533333 C41.6226667,10.0533333 40.888,9.748 40.3413333,9.13466667 C39.7946667,8.52266667 39.5213333,7.75066667 39.5213333,6.82 C39.5213333,5.84666667 39.8026667,5.048 40.368,4.428 C40.9333333,3.808 41.6933333,3.49733333 42.6493333,3.49733333 C43.5733333,3.49733333 44.3133333,3.80266667 44.876,4.41466667 C45.4093333,5.00933333 45.6773333,5.77733333 45.6773333,6.716 L45.6773333,6.716 Z M44.2266667,6.76133333 C44.2266667,6.18133333 44.1013333,5.684 43.852,5.26933333 C43.56,4.768 43.1413333,4.51733333 42.6,4.51733333 C42.0373333,4.51733333 41.6106667,4.768 41.3186667,5.26933333 C41.068,5.684 40.944,6.18933333 40.944,6.78666667 C40.944,7.36666667 41.0693333,7.864 41.3186667,8.27866667 C41.6213333,8.78 42.0426667,9.03066667 42.5866667,9.03066667 C43.12,9.03066667 43.5373333,8.776 43.8386667,8.26533333 C44.0986667,7.84266667 44.2266667,7.34133333 44.2266667,6.76133333 L44.2266667,6.76133333 Z"></path>
                        <path d="M52.44,9.91066667 L51.1853333,9.91066667 L51.0813333,9.18666667 L51.0426667,9.18666667 C50.6133333,9.764 50.0013333,10.0533333 49.2066667,10.0533333 C48.6133333,10.0533333 48.1333333,9.86266667 47.772,9.484 C47.444,9.14 47.28,8.712 47.28,8.204 C47.28,7.436 47.6,6.85066667 48.244,6.44533333 C48.8866667,6.04 49.7906667,5.84133333 50.9546667,5.85066667 L50.9546667,5.73333333 C50.9546667,4.90533333 50.52,4.492 49.6493333,4.492 C49.0293333,4.492 48.4826667,4.648 48.0106667,4.95733333 L47.7266667,4.04 C48.3106667,3.67866667 49.032,3.49733333 49.8826667,3.49733333 C51.5253333,3.49733333 52.3493333,4.364 52.3493333,6.09733333 L52.3493333,8.412 C52.3493333,9.04 52.38,9.54 52.44,9.91066667 L52.44,9.91066667 Z M50.9893333,7.75066667 L50.9893333,6.78133333 C49.448,6.75466667 48.6773333,7.17733333 48.6773333,8.048 C48.6773333,8.376 48.7653333,8.62133333 48.9453333,8.78533333 C49.1253333,8.94933333 49.3546667,9.03066667 49.628,9.03066667 C49.9346667,9.03066667 50.2213333,8.93333333 50.4826667,8.74 C50.7453333,8.54533333 50.9066667,8.29866667 50.9666667,7.996 C50.9813333,7.928 50.9893333,7.84533333 50.9893333,7.75066667 L50.9893333,7.75066667 Z"></path>
                        <path d="M60.38,9.91066667 L59.14,9.91066667 L59.0746667,8.90133333 L59.036,8.90133333 C58.64,9.66933333 57.9653333,10.0533333 57.0173333,10.0533333 C56.26,10.0533333 55.6293333,9.756 55.1293333,9.16133333 C54.6293333,8.56666667 54.38,7.79466667 54.38,6.84666667 C54.38,5.82933333 54.6506667,5.00533333 55.1946667,4.376 C55.7213333,3.78933333 56.3666667,3.496 57.1346667,3.496 C57.9786667,3.496 58.5693333,3.78 58.9053333,4.34933333 L58.932,4.34933333 L58.932,0.741333333 L60.3306667,0.741333333 L60.3306667,8.21733333 C60.3306667,8.82933333 60.3466667,9.39333333 60.38,9.91066667 L60.38,9.91066667 Z M58.932,7.26 L58.932,6.212 C58.932,6.03066667 58.9186667,5.884 58.8933333,5.772 C58.8146667,5.436 58.6453333,5.15333333 58.388,4.92533333 C58.128,4.69733333 57.8146667,4.58266667 57.4533333,4.58266667 C56.932,4.58266667 56.524,4.78933333 56.224,5.204 C55.9266667,5.61866667 55.776,6.148 55.776,6.79466667 C55.776,7.416 55.9186667,7.92 56.2053333,8.308 C56.508,8.72133333 56.916,8.928 57.4266667,8.928 C57.8853333,8.928 58.252,8.756 58.5306667,8.41066667 C58.8,8.092 58.932,7.708 58.932,7.26 L58.932,7.26 Z"></path>
                        <path d="M72.3306667,6.716 C72.3306667,7.68266667 72.0546667,8.47466667 71.5026667,9.096 C70.924,9.73466667 70.1586667,10.0533333 69.2,10.0533333 C68.2786667,10.0533333 67.544,9.748 66.9946667,9.13466667 C66.448,8.52266667 66.1746667,7.75066667 66.1746667,6.82 C66.1746667,5.84666667 66.456,5.048 67.0213333,4.428 C67.5866667,3.808 68.3466667,3.49733333 69.3053333,3.49733333 C70.2266667,3.49733333 70.9693333,3.80266667 71.5293333,4.41466667 C72.0626667,5.00933333 72.3306667,5.77733333 72.3306667,6.716 L72.3306667,6.716 Z M70.8826667,6.76133333 C70.8826667,6.18133333 70.7573333,5.684 70.508,5.26933333 C70.2133333,4.768 69.7973333,4.51733333 69.2533333,4.51733333 C68.6933333,4.51733333 68.2666667,4.768 67.972,5.26933333 C67.7213333,5.684 67.5973333,6.18933333 67.5973333,6.78666667 C67.5973333,7.36666667 67.7226667,7.864 67.972,8.27866667 C68.2746667,8.78 68.696,9.03066667 69.24,9.03066667 C69.7733333,9.03066667 70.1933333,8.776 70.4946667,8.26533333 C70.752,7.84266667 70.8826667,7.34133333 70.8826667,6.76133333 L70.8826667,6.76133333 Z"></path>
                        <path d="M79.844,9.91066667 L78.448,9.91066667 L78.448,6.31066667 C78.448,5.20133333 78.0266667,4.64666667 77.18,4.64666667 C76.7653333,4.64666667 76.4306667,4.79866667 76.172,5.104 C75.9133333,5.40933333 75.784,5.76933333 75.784,6.18133333 L75.784,9.90933333 L74.3853333,9.90933333 L74.3853333,5.42133333 C74.3853333,4.86933333 74.3693333,4.27066667 74.336,3.62266667 L75.5626667,3.62266667 L75.628,4.60533333 L75.6666667,4.60533333 C75.8306667,4.3 76.0733333,4.048 76.3906667,3.84666667 C76.7706667,3.612 77.1933333,3.49333333 77.6586667,3.49333333 C78.244,3.49333333 78.732,3.68266667 79.12,4.06266667 C79.604,4.528 79.844,5.22266667 79.844,6.14533333 L79.844,9.91066667 L79.844,9.91066667 Z"></path>
                        <path d="M89.248,4.672 L87.7093333,4.672 L87.7093333,7.72533333 C87.7093333,8.50133333 87.9826667,8.88933333 88.524,8.88933333 C88.7746667,8.88933333 88.9826667,8.868 89.1466667,8.824 L89.1826667,9.884 C88.9066667,9.988 88.544,10.04 88.0973333,10.04 C87.5453333,10.04 87.116,9.872 86.8053333,9.536 C86.4933333,9.2 86.3386667,8.63466667 86.3386667,7.84133333 L86.3386667,4.672 L85.42,4.672 L85.42,3.62533333 L86.3386667,3.62533333 L86.3386667,2.47333333 L87.708,2.06 L87.708,3.624 L89.2466667,3.624 L89.2466667,4.672 L89.248,4.672 Z"></path>
                        <path d="M96.6453333,9.91066667 L95.2466667,9.91066667 L95.2466667,6.33733333 C95.2466667,5.21066667 94.8253333,4.64666667 93.9813333,4.64666667 C93.3333333,4.64666667 92.8906667,4.97333333 92.648,5.62666667 C92.6066667,5.764 92.5826667,5.932 92.5826667,6.12933333 L92.5826667,9.90933333 L91.1866667,9.90933333 L91.1866667,0.741333333 L92.5826667,0.741333333 L92.5826667,4.52933333 L92.6093333,4.52933333 C93.0493333,3.84 93.68,3.496 94.4973333,3.496 C95.076,3.496 95.5546667,3.68533333 95.9346667,4.06533333 C96.408,4.53866667 96.6453333,5.24266667 96.6453333,6.17333333 L96.6453333,9.91066667 L96.6453333,9.91066667 Z"></path>
                        <path d="M104.276,6.47066667 C104.276,6.72133333 104.257333,6.932 104.224,7.104 L100.033333,7.104 C100.052,7.72533333 100.252,8.19866667 100.64,8.52666667 C100.994667,8.82 101.452,8.96666667 102.012,8.96666667 C102.632,8.96666667 103.197333,8.868 103.706667,8.66933333 L103.925333,9.64 C103.329333,9.89866667 102.628,10.028 101.816,10.028 C100.842667,10.028 100.076,9.74133333 99.5213333,9.168 C98.964,8.59466667 98.688,7.82533333 98.688,6.86 C98.688,5.912 98.9453333,5.12266667 99.464,4.49333333 C100.005333,3.82133333 100.737333,3.48533333 101.661333,3.48533333 C102.565333,3.48533333 103.252,3.82133333 103.716,4.49333333 C104.090667,5.02666667 104.276,5.68666667 104.276,6.47066667 L104.276,6.47066667 Z M102.942667,6.10933333 C102.953333,5.69466667 102.861333,5.33733333 102.672,5.036 C102.429333,4.648 102.06,4.45333333 101.56,4.45333333 C101.104,4.45333333 100.732,4.64266667 100.448,5.02266667 C100.216,5.32533333 100.078667,5.68666667 100.033333,6.10933333 L102.942667,6.10933333 L102.942667,6.10933333 Z"></path>
                    </g>
                </g>
            </g>
        </g>
    </g>
</svg>