<?xml version="1.0" encoding="UTF-8" standalone="no"?>
<svg width="50px" height="49px" viewBox="0 0 50 49" version="1.1" xmlns="http://www.w3.org/2000/svg" xmlns:xlink="http://www.w3.org/1999/xlink">
    <!-- Generator: Sketch 3.6.1 (26313) - http://www.bohemiancoding.com/sketch -->
    <title>github-logo</title>
    <desc>Created with Sketch.</desc>
    <defs></defs>
    <g id="ㅎㅇ" stroke="none" stroke-width="1" fill="none" fill-rule="evenodd">
        <g id="github-logo" fill="#FFFFFF">
            <g id="Capa_1">
                <path d="M46.5981777,12.4798405 C44.3649203,8.65341686 41.3356492,5.62403189 37.5095672,3.39100228 C33.6829157,1.15785877 29.5053531,0.041571754 24.973918,0.041571754 C20.4430524,0.041571754 16.264123,1.15820046 12.4382688,3.39100228 C8.6118451,5.623918 5.58268793,8.65341686 3.34943052,12.4798405 C1.11651481,16.3061503 0,20.4845103 0,25.0148064 C0,30.4567198 1.58769932,35.3502278 4.76389522,39.6965831 C7.93974943,44.0432802 12.0424829,47.0510251 17.071754,48.7201595 C17.6571754,48.8288155 18.0905467,48.7523918 18.3723235,48.4928246 C18.6542141,48.2329157 18.7949886,47.9074032 18.7949886,47.5176538 C18.7949886,47.4526196 18.7894077,46.8675399 18.7785877,45.7617312 C18.767426,44.6559226 18.7621868,43.6912301 18.7621868,42.8681093 L18.0142369,42.9974943 C17.5373576,43.0848519 16.9357631,43.1218679 16.2094533,43.1113895 C15.4834852,43.1012528 14.7298405,43.0251708 13.9495444,42.883713 C13.1689066,42.743508 12.4428246,42.4183371 11.7707289,41.9088838 C11.0989749,41.3994305 10.6220957,40.732574 10.340205,39.9093394 L10.0150342,39.1610478 C9.79829157,38.6628702 9.4570615,38.1094533 8.99088838,37.5028474 C8.52471526,36.895672 8.05330296,36.4840547 7.57642369,36.2673121 L7.34874715,36.104328 C7.19703872,35.9960137 7.05626424,35.8653759 6.926082,35.7137813 C6.79601367,35.5621868 6.69863326,35.4104784 6.63359909,35.2585421 C6.56845103,35.106492 6.62243736,34.9817768 6.79612756,34.8839408 C6.96981777,34.7861048 7.28371298,34.7386105 7.73917995,34.7386105 L8.38929385,34.8357631 C8.82289294,34.9226651 9.35922551,35.1822323 9.99897494,35.6160592 C10.6383827,36.0495444 11.1640091,36.6130979 11.5759681,37.306492 C12.0748292,38.1955581 12.6758542,38.8730068 13.3807517,39.33918 C14.0850797,39.8053531 14.7952164,40.038041 15.5104784,40.038041 C16.2257403,40.038041 16.843508,39.9838269 17.3640091,39.8759681 C17.8839408,39.7675399 18.371754,39.6045558 18.827221,39.3879271 C19.0223235,37.9348519 19.5535308,36.8185649 20.4203872,36.0382688 C19.1848519,35.9084282 18.0740319,35.7128702 17.0873576,35.4528474 C16.1012528,35.1924829 15.0822323,34.7699317 14.0309795,34.1840547 C12.9791572,33.5989749 12.1066059,32.8724374 11.4130979,32.0056948 C10.7194761,31.1384966 10.1502278,30 9.70615034,28.5912301 C9.2618451,27.1818907 9.03963554,25.5561503 9.03963554,23.7135535 C9.03963554,21.0899772 9.89612756,18.8574032 11.6087699,17.0145786 C10.806492,15.0421412 10.8822323,12.8309795 11.8362187,10.3813212 C12.4649203,10.1859909 13.3972665,10.332574 14.6328018,10.8201595 C15.8685649,11.3079727 16.7733485,11.7258542 17.3480638,12.0723235 C17.922779,12.4186788 18.3832574,12.7121868 18.7301822,12.9502278 C20.746697,12.3867882 22.8276765,12.1050114 24.9736902,12.1050114 C27.1197039,12.1050114 29.201139,12.3867882 31.2177677,12.9502278 L32.4534169,12.1701595 C33.2984055,11.6496583 34.2962415,11.1726651 35.444533,10.7390661 C36.593508,10.3056948 37.4720957,10.1863326 38.079385,10.3816629 C39.0545558,12.8314351 39.1414579,15.0424829 38.3389522,17.0149203 C40.0514806,18.8577449 40.9083144,21.0908884 40.9083144,23.7138952 C40.9083144,25.556492 40.6853075,27.1873576 40.2416856,28.6075171 C39.7974943,30.0279043 39.2233485,31.165262 38.5190205,32.0219818 C37.8138952,32.8785877 36.9357631,33.5994305 35.8845103,34.1843964 C34.8330296,34.7698178 33.8136674,35.192369 32.8275626,35.4527335 C31.8410023,35.7130979 30.7301822,35.9087699 29.4946469,36.0388383 C30.6215262,37.0140091 31.1850797,38.553303 31.1850797,40.6560364 L31.1850797,47.5167426 C31.1850797,47.906492 31.320615,48.2318907 31.5919134,48.4919134 C31.8628702,48.7514806 32.2907745,48.8279043 32.8761959,48.7191344 C37.9061503,47.0502278 42.0088838,44.042369 45.1846241,39.695672 C48.3600228,35.3493166 49.9482916,30.4558087 49.9482916,25.0138952 C49.9471526,20.4841686 48.8300683,16.3061503 46.5981777,12.4798405 L46.5981777,12.4798405 Z" id="Shape"></path>
            </g>
        </g>
    </g>
</svg>