<?xml version="1.0" encoding="UTF-8" standalone="no"?>
<svg width="50px" height="50px" viewBox="0 0 50 50" version="1.1" xmlns="http://www.w3.org/2000/svg" xmlns:xlink="http://www.w3.org/1999/xlink">
    <!-- Generator: Sketch 3.6.1 (26313) - http://www.bohemiancoding.com/sketch -->
    <title>at</title>
    <desc>Created with Sketch.</desc>
    <defs></defs>
    <g id="ㅎㅇ" stroke="none" stroke-width="1" fill="none" fill-rule="evenodd">
        <g id="at" fill="#FFFFFF">
            <g id="Capa_1">
                <g id="Group">
                    <path d="M24.9990291,14.893932 C30.5713592,14.893932 35.1046117,19.4274272 35.1046117,24.9995146 C35.1046117,25.8036408 35.7567961,26.4558252 36.5609223,26.4558252 C37.3650485,26.4558252 38.017233,25.8036408 38.017233,24.9995146 C38.017233,17.8213592 32.1771845,11.9813107 24.9990291,11.9813107 C17.8208738,11.9813107 11.9805825,17.8213592 11.9805825,24.9995146 C11.9805825,32.1776699 17.8206311,38.0177184 24.9987864,38.0177184 C29.6080097,38.0177184 33.9174757,35.5432039 36.2453883,31.5597087 C36.6512136,30.8652913 36.417233,29.9735437 35.7228155,29.5674757 C35.0286408,29.1621359 34.1366505,29.3958738 33.7305825,30.0900485 C31.9228155,33.1834951 28.5769417,35.1050971 24.9985437,35.1050971 C19.4262136,35.1050971 14.8929612,30.5716019 14.8929612,24.9995146 C14.8929612,19.4274272 19.426699,14.893932 24.9990291,14.893932 L24.9990291,14.893932 Z" id="Shape"></path>
                    <path d="M49.926699,23.0711165 C49.0140777,10.9208738 39.1679612,1.03665049 27.0240291,0.0791262136 C19.6832524,-0.499757282 12.5024272,2.14004854 7.3211165,7.32160194 C2.13956311,12.5031553 -0.500242718,19.684466 0.0786407767,27.0245146 C1.03276699,39.123301 10.8754854,48.9660194 22.9740291,49.9199029 C23.6407767,49.9725728 24.3050971,49.998301 24.9677184,49.998301 C31.6009709,49.998301 37.9660194,47.3883495 42.6769417,42.6776699 C43.2456311,42.1087379 43.2456311,41.1866505 42.6769417,40.6182039 C42.1082524,40.0497573 41.186165,40.0492718 40.6174757,40.6179612 C36.0393204,45.1958738 29.692233,47.5281553 23.2031553,47.0162621 C12.5179612,46.1737864 3.825,37.4808252 2.98228155,26.7953883 C2.47063107,20.3063107 4.8026699,13.9587379 9.38058252,9.38106796 C13.9584951,4.80315534 20.3048544,2.47014563 26.7949029,2.98276699 C37.5203883,3.82815534 46.2162621,12.5582524 47.0223301,23.2890777 C47.132767,24.7592233 47.1002427,26.236165 46.9259709,27.6788835 C46.7410194,29.2089806 45.8148058,30.5441748 44.448301,31.25 C43.2116505,31.8890777 41.8223301,31.8866505 40.636165,31.2436893 C39.9291262,30.8597087 39.0449029,31.1225728 38.6618932,31.8298544 C38.2783981,32.5368932 38.5407767,33.4208738 39.2480583,33.8041262 C41.2953883,34.9140777 43.6779126,34.9262136 45.7851942,33.8378641 C48.009466,32.688835 49.5169903,30.5169903 49.8174757,28.0283981 C50.0145631,26.3975728 50.0512136,24.7298544 49.926699,23.0711165 L49.926699,23.0711165 Z" id="Shape"></path>
                </g>
            </g>
        </g>
    </g>
</svg>